<?xml version="1.0" encoding="UTF-8"?>
<!DOCTYPE svg PUBLIC "-//W3C//DTD SVG 1.1//EN" "http://www.w3.org/Graphics/SVG/1.1/DTD/svg11.dtd">
<svg version="1.1" xmlns="http://www.w3.org/2000/svg" xmlns:xlink="http://www.w3.org/1999/xlink" x="0" y="0" width="200" height="50" viewBox="0, 0, 200, 50">
  <g id="Layer_1">
    <text transform="matrix(1, 0, 0, 1, 130.633, 10.45)">
      <tspan x="-75.1" y="6.711" font-family="Charter-Roman" font-size="19" kerning="1.4" fill="#000000">SUSTAINABLE</tspan>
    </text>
    <text transform="matrix(1, 0, 0, 1, 128.167, 26.683)">
      <tspan x="-72.633" y="4.311" font-family="Charter-Roman" font-size="14" kerning="0.7" fill="#000000">FISHERIES</tspan>
      <tspan x="1.342" y="4.311" font-family="Charter-Roman" font-size="14" kerning="0.5" fill="#000000"> </tspan>
      <tspan x="5.732" y="4.311" font-family="Charter-Bold" font-size="14" kerning="2" fill="#000000">GROUP</tspan>
    </text>
    <path d="M7.045,6.256 C7.045,6.256 7.41,5.352 15.624,5.171 C23.839,4.991 28.768,5.895 28.768,5.895 C28.768,5.895 33.696,6.437 39.538,6.618 C45.379,6.798 49.395,6.256 49.395,6.256 C49.395,6.256 50.125,9.149 50.125,15.476 C50.125,21.803 49.577,26.323 49.577,26.323 C49.577,26.323 49.03,30.481 49.03,36.627 C49.03,42.774 49.395,45.305 49.395,45.305 C49.395,45.305 42.823,46.209 39.72,46.209 C36.617,46.209 28.402,45.486 28.402,45.486 C28.402,45.486 22.561,44.763 17.085,44.763 C11.608,44.763 6.862,45.486 6.862,45.486 C6.862,45.486 6.497,39.339 6.497,34.097 C6.497,28.854 6.862,26.142 7.227,23.43 C7.593,20.719 7.41,17.826 7.41,13.668 C7.41,9.51 7.045,6.256 7.045,6.256 z" fill-opacity="0" stroke="#000000" stroke-width="1"/>
    <g>
      <path d="M9.838,24.162 C9.838,24.162 9.749,23.717 9.972,23.583 C10.194,23.45 11.754,24.474 12.957,25.633 C14.16,26.791 14.65,27.326 15.719,29.286 C16.788,31.247 16.61,34.811 17.011,36.103 C17.412,37.395 17.501,37.751 18.66,38.687 C19.818,39.623 20.175,39.756 21.333,40.068 C22.491,40.38 24.541,40.336 24.541,40.336 C24.541,40.336 23.962,41.36 23.382,41.494 C22.803,41.628 21.6,41.316 21.6,41.316 L20.353,40.915 C20.353,40.915 20.442,41.672 20.353,42.251 C20.264,42.831 19.595,43.098 19.595,43.098 C19.595,43.098 19.506,41.94 19.194,41.271 C18.882,40.603 17.457,39.578 17.457,39.578 C17.457,39.578 13.759,37.306 12.957,36.549 C12.155,35.791 10.774,34.321 9.972,32.271 C9.17,30.222 8.947,29.152 8.858,27.593 C8.769,26.034 8.902,24.296 9.125,24.118 C9.348,23.94 9.838,24.162 9.838,24.162 z" fill="#000000"/>
      <path d="M8.59,31.068 C8.59,31.068 8.368,33.029 8.59,33.786 C8.813,34.544 9.66,35.034 9.972,35.702 C10.283,36.37 10.462,36.994 10.417,37.662 C10.373,38.331 10.105,39.667 10.105,39.667 C10.105,39.667 11.13,38.42 11.264,37.93 C11.397,37.44 11.308,36.326 11.085,35.747 C10.863,35.167 9.704,33.964 9.437,33.519 C9.17,33.073 8.59,31.068 8.59,31.068 z" fill="#000000"/>
      <path d="M15.986,28.083 C15.986,28.083 17.947,29.954 18.303,30.667 C18.66,31.38 18.749,33.118 18.749,33.118 C18.749,33.118 18.749,35.212 18.571,35.435 C18.392,35.657 17.635,35.702 17.457,35.435 C17.278,35.167 17.546,32.539 17.457,31.648 C17.368,30.756 15.986,28.083 15.986,28.083 z" fill="#000000"/>
    </g>
    <g>
      <path d="M34.064,41.181 C34.064,41.181 33.735,41.494 33.503,41.378 C33.271,41.261 33.303,39.395 33.639,37.759 C33.975,36.123 34.165,35.423 35.25,33.471 C36.335,31.52 39.442,29.765 40.32,28.735 C41.197,27.705 41.451,27.44 41.622,25.96 C41.793,24.481 41.716,24.108 41.36,22.963 C41.004,21.817 39.871,20.109 39.871,20.109 C39.871,20.109 41.047,20.05 41.469,20.468 C41.892,20.887 42.271,22.07 42.271,22.07 L42.599,23.339 C42.599,23.339 43.192,22.858 43.729,22.624 C44.266,22.39 44.849,22.811 44.849,22.811 C44.849,22.811 43.918,23.506 43.52,24.127 C43.122,24.748 43.018,26.501 43.018,26.501 C43.018,26.501 43.075,30.84 42.864,31.923 C42.652,33.006 42.148,34.959 40.845,36.733 C39.542,38.506 38.757,39.266 37.487,40.175 C36.217,41.084 34.677,41.9 34.407,41.807 C34.138,41.714 34.064,41.181 34.064,41.181 z" fill="#000000"/>
      <path d="M40.567,38.543 C40.567,38.543 42.343,37.683 42.864,37.09 C43.385,36.497 43.346,35.519 43.744,34.898 C44.142,34.278 44.574,33.793 45.163,33.474 C45.751,33.154 47.024,32.665 47.024,32.665 C47.024,32.665 45.422,32.466 44.936,32.616 C44.451,32.765 43.557,33.435 43.186,33.933 C42.816,34.431 42.419,36.053 42.185,36.517 C41.952,36.982 40.567,38.543 40.567,38.543 z" fill="#000000"/>
      <path d="M34.09,33.889 C34.09,33.889 34.623,31.232 35.035,30.549 C35.447,29.867 36.868,28.863 36.868,28.863 C36.868,28.863 38.638,27.743 38.921,27.775 C39.205,27.806 39.647,28.422 39.517,28.716 C39.386,29.009 37.022,30.189 36.316,30.741 C35.611,31.292 34.09,33.889 34.09,33.889 z" fill="#000000"/>
    </g>
    <g>
      <path d="M36.55,13.624 C36.55,13.624 36.98,13.771 36.983,14.031 C36.987,14.291 35.317,15.123 33.71,15.58 C32.104,16.037 31.395,16.192 29.163,16.13 C26.931,16.068 23.94,14.121 22.621,13.818 C21.303,13.515 20.95,13.412 19.559,13.943 C18.167,14.473 17.873,14.714 17.02,15.559 C16.168,16.403 15.176,18.197 15.176,18.197 C15.176,18.197 14.581,17.181 14.757,16.613 C14.933,16.045 15.808,15.162 15.808,15.162 L16.782,14.286 C16.782,14.286 16.082,13.982 15.627,13.613 C15.171,13.245 15.276,12.533 15.276,12.533 C15.276,12.533 16.322,13.039 17.056,13.105 C17.791,13.172 19.394,12.455 19.394,12.455 C19.394,12.455 23.218,10.402 24.276,10.09 C25.334,9.777 27.299,9.323 29.474,9.661 C31.649,9.999 32.685,10.344 34.078,11.051 C35.47,11.759 36.905,12.748 36.947,13.031 C36.989,13.313 36.55,13.624 36.55,13.624 z" fill="#000000"/>
      <path d="M31.209,9.072 C31.209,9.072 29.626,7.894 28.86,7.705 C28.093,7.517 27.243,8.002 26.509,7.935 C25.774,7.869 25.146,7.709 24.591,7.334 C24.035,6.96 23.015,6.056 23.015,6.056 C23.015,6.056 23.577,7.57 23.934,7.932 C24.29,8.294 25.298,8.777 25.91,8.876 C26.523,8.974 28.145,8.578 28.665,8.571 C29.184,8.564 31.209,9.072 31.209,9.072 z" fill="#000000"/>
      <path d="M30.068,16.966 C30.068,16.966 27.465,17.719 26.67,17.669 C25.874,17.618 24.327,16.821 24.327,16.821 C24.327,16.821 22.518,15.768 22.415,15.502 C22.312,15.236 22.654,14.559 22.975,14.539 C23.296,14.52 25.433,16.073 26.248,16.444 C27.063,16.815 30.068,16.966 30.068,16.966 z" fill="#000000"/>
    </g>
    <g>
      <path d="M12.002,14.627 C11.824,14.54 10.71,15.671 10.71,16.106 C10.71,16.541 12.091,18.761 12.581,18.5 C13.072,18.238 11.869,16.715 11.824,16.28 C11.779,15.845 12.18,14.714 12.002,14.627 z" fill="#000000"/>
      <path d="M12.566,14.494 C12.36,14.847 12.226,15.369 12.36,15.804 C12.493,16.239 12.983,17.501 13.251,17.501 C13.518,17.501 13.251,16.37 13.518,15.934 C13.785,15.499 14.158,15.63 14.306,15.412 C14.454,15.195 14.514,14.663 14.306,14.494 C14.097,14.324 12.772,14.141 12.566,14.494 z" fill="#000000"/>
      <path d="M14.739,20.49 C14.783,20.359 11.976,20.359 11.754,20.621 C11.531,20.882 10.818,22.013 10.996,22.274 C11.175,22.535 12.003,21.839 12.368,21.578 C12.734,21.317 14.694,20.621 14.739,20.49 z" fill="#000000"/>
      <path d="M17.722,21.273 C17.633,21.142 16.43,21.055 15.94,21.229 C15.45,21.403 14.844,21.795 14.768,22.274 C14.692,22.752 14.532,23.71 14.768,24.058 C15.004,24.406 15.004,24.362 15.316,24.362 C15.628,24.362 15.361,23.318 15.628,22.709 C15.895,22.1 17.811,21.403 17.722,21.273 z" fill="#000000"/>
      <path d="M17.379,18.836 C17.2,18.793 17.245,17.531 17.379,17.139 C17.512,16.748 17.958,16.313 18.359,16.182 C18.76,16.051 20.453,15.66 20.453,15.964 C20.453,16.269 19.874,16.661 19.517,16.922 C19.161,17.183 18.582,16.922 18.403,17.183 C18.225,17.444 17.557,18.88 17.379,18.836 z" fill="#000000"/>
      <path d="M14.725,23.488 C14.739,23.27 13.669,23.009 13.313,22.879 C12.957,22.748 11.353,22.705 11.353,23.053 C11.353,23.401 12.344,23.726 12.985,23.825 C13.625,23.923 14.711,23.706 14.725,23.488 z" fill="#000000"/>
      <path d="M14.098,24.947 C14.187,25.208 15.212,25.774 15.657,25.73 C16.103,25.687 15.791,25.077 16.192,24.99 C16.593,24.903 17.662,25.165 18.241,24.99 C18.821,24.816 18.865,23.424 19.132,23.337 C19.4,23.25 20.736,23.99 20.781,23.772 C20.826,23.554 19.311,22.597 19.311,22.597 C19.311,22.597 18.509,22.336 18.286,22.597 C18.063,22.858 18.108,24.077 17.707,24.207 C17.306,24.338 16.281,24.033 16.058,24.207 C15.835,24.381 15.702,24.555 15.479,24.729 C15.256,24.903 14.009,24.686 14.098,24.947 z" fill="#000000"/>
      <path d="M19.373,20.708 C19.239,20.751 19.194,19.672 19.239,19.363 C19.283,19.054 20.041,18.662 20.754,18.619 C21.868,18.423 21.957,17.836 22.313,17.966 C22.67,18.097 23.382,18.271 23.338,18.619 C23.293,18.967 22.135,19.363 22.135,19.363 C22.135,19.363 21.912,19.576 21.689,19.75 C21.467,19.924 20.353,19.359 20.085,19.707 C19.818,20.055 19.506,20.664 19.373,20.708 z" fill="#000000"/>
      <path d="M21.905,23.687 C21.905,23.295 21.459,22.12 21.637,21.598 C21.816,21.076 22.35,20.854 22.929,20.682 C23.509,20.51 24.533,20.682 24.533,20.682 C24.533,20.682 27.162,21.032 27.118,21.337 C27.073,21.641 24.533,21.598 24.533,21.598 C24.533,21.598 23.464,21.467 23.241,21.598 C23.019,21.728 22.618,22.512 22.618,22.903 C22.618,23.295 22.796,23.62 22.707,24.067 C22.618,24.513 22.127,24.861 21.949,24.948 C21.771,25.035 21.905,24.078 21.905,23.687 z" fill="#000000"/>
      <path d="M21.934,26.646 C21.889,26.472 20.82,26.515 20.82,26.515 C20.82,26.515 20.107,25.95 19.528,25.95 C18.948,25.95 18.637,26.515 18.325,26.777 C18.013,27.038 17.389,26.951 17.434,27.516 C17.478,28.082 17.745,28.517 17.745,28.517 C17.745,28.517 18.013,29.126 18.414,29.083 C18.815,29.039 19.127,28.3 19.127,28.3 C19.127,28.3 19.082,27.69 19.305,27.429 C19.528,27.168 20.196,27.168 20.196,27.168 L21.31,27.342 C21.31,27.342 21.978,26.82 21.934,26.646 z" fill="#000000"/>
      <path d="M24.198,27.525 C23.975,27.482 23.886,25.872 23.975,25.48 C24.065,25.088 24.287,25.48 24.466,25.088 C24.644,24.697 24.332,24.282 24.466,23.946 C24.599,23.609 24.956,23.13 25.446,23 C25.936,22.869 26.961,22.695 27.05,23 C27.139,23.304 26.159,24.262 26.159,24.262 L25.446,25.785 C25.446,25.785 24.421,27.569 24.198,27.525 z" fill="#000000"/>
      <path d="M13.011,18.684 C13.011,18.684 13.412,18.597 13.991,19.119 C14.571,19.641 14.392,19.902 14.571,20.25 C14.749,20.598 15.283,20.903 15.729,20.99 C16.175,21.077 16.754,20.812 17.199,20.814 C17.645,20.816 17.957,20.99 17.957,20.99 C17.957,20.99 18.67,21.469 19.071,21.73 C19.472,21.991 20.541,22.426 20.541,22.426 C20.541,22.426 21.076,22.382 21.298,23.079 C21.521,23.775 21.165,24.341 21.298,24.863 C21.432,25.385 22.145,25.69 22.145,25.69 C22.145,25.69 22.858,25.733 23.036,26.081 C23.214,26.429 22.858,27.126 22.991,27.517 C23.125,27.909 23.437,28.3 23.838,28.431 C24.239,28.562 25.041,28.518 25.442,28.649 C25.843,28.779 26.511,29.301 26.511,29.301" fill-opacity="0" stroke="#000000" stroke-width="0.5"/>
      <path d="M17.957,19.119 C17.957,19.119 18.001,19.598 18.179,19.946 C18.358,20.294 17.957,20.99 17.957,20.99" fill-opacity="0" stroke="#000000" stroke-width="0.25"/>
      <path d="M19.962,20.99 C19.962,20.99 20.051,21.448 20.363,21.632 C20.675,21.817 20.541,22.426 20.541,22.426" fill-opacity="0" stroke="#000000" stroke-width="0.25"/>
      <path d="M17.957,21.766 C17.957,21.766 18.269,21.615 18.491,21.625 C18.714,21.636 19.071,21.723 19.071,21.723" fill-opacity="0" stroke="#000000" stroke-width="0.25"/>
      <path d="M22.145,27.082 C22.145,27.082 22.189,27.169 22.546,27.3 C22.902,27.43 22.991,27.3 22.991,27.3" fill-opacity="0" stroke="#000000" stroke-width="0.25"/>
      <path d="M22.436,25 L22.658,25.348 L23.015,26" fill-opacity="0" stroke="#000000" stroke-width="0.25"/>
      <path d="M24.774,27.778 L25.041,28.126 L25.442,28.649" fill-opacity="0" stroke="#000000" stroke-width="0.25"/>
      <path d="M13.635,17.552 C13.635,17.552 13.59,17.863 13.902,18.23 C14.214,18.597 13.991,19.119 13.991,19.119" fill-opacity="0" stroke="#000000" stroke-width="0.25"/>
      <path d="M14.759,24.071 C14.759,24.071 16.6,22.707 17.313,23.041 C18.026,23.375 19.273,21.983 19.273,21.983" fill-opacity="0" stroke="#000000" stroke-width="0.25"/>
    </g>
    <path d="M27.089,23.086 C27.356,22.997 28.737,22.774 28.737,22.774 C28.737,22.774 28.826,22.596 29.227,23.042 C29.628,23.487 30.163,24.779 29.985,24.958 C29.807,25.136 29.005,23.576 28.604,23.532 C28.203,23.487 26.823,23.175 27.089,23.086 z" fill="#000000"/>
    <path d="M31.179,18.237 C30.957,18.014 30.244,19.35 30.244,19.885 C30.244,20.42 30.333,20.42 30.377,21.044 C30.422,21.667 29.798,21.578 30.021,22.157 C30.244,22.737 30.957,23.182 31.135,23.36 C31.313,23.539 30.244,24.385 30.511,24.563 C30.778,24.742 32.204,23.316 32.249,22.959 C32.293,22.603 31.269,22.514 31.179,21.89 C31.09,21.266 31.402,18.459 31.179,18.237 z" fill="#000000"/>
    <path d="M32.697,19.482 C32.385,19.344 33.098,17.651 33.499,17.785 C33.9,17.918 33.659,18.453 33.802,18.809 C33.945,19.166 33.009,19.621 32.697,19.482 z" fill="#000000"/>
    <path d="M34.261,17.123 C33.994,17.39 33.86,18.914 34.172,19.088 C34.484,19.261 34.484,20.149 34.796,20.284 C35.107,20.42 34.84,18.415 35.152,18.415 C35.464,18.415 35.508,17.747 35.286,17.39 C35.063,17.034 34.528,16.855 34.261,17.123 z" fill="#000000"/>
    <path d="M35.545,19.263 C35.545,19.263 36.08,18.233 36.614,17.788 C37.149,17.342 38.085,17.209 38.753,17.298 C39.421,17.387 39.733,18.59 39.733,18.59 C39.733,18.59 40.09,19 39.778,19.263 C39.466,19.525 38.798,18.723 38.441,18.59 C38.085,18.456 35.545,19.263 35.545,19.263 z" fill="#000000"/>
    <path d="M35.323,21.801 C35.635,21.667 37.239,21.489 37.729,21.534 C38.219,21.578 38.62,21.935 38.887,22.603 C39.155,23.271 38.665,24.786 38.887,25.009 C39.11,25.232 39.422,25.855 38.932,25.945 C38.442,26.034 37.64,24.964 37.551,24.563 C37.462,24.162 37.551,23.672 37.462,23.182 C37.373,22.692 35.011,21.935 35.323,21.801 z" fill="#000000"/>
    <path d="M33.728,23.725 C33.995,23.414 35.599,23.681 36.089,23.904 C36.579,24.126 36.535,24.572 36.579,25.107 C36.624,25.641 35.911,25.864 36.089,26.265 C36.267,26.666 36.579,26.755 36.312,27.156 C36.045,27.557 35.421,27.112 35.198,26.8 C34.975,26.488 34.931,26.176 34.931,25.82 C34.931,25.463 35.02,25.018 34.886,24.75 C34.752,24.483 33.46,24.037 33.728,23.725 z" fill="#000000"/>
    <path d="M29.896,26.07 C29.851,25.847 31.5,25.268 32.124,25.268 C32.748,25.268 33.861,25.936 34.084,26.381 C34.307,26.827 34.084,28.386 34.084,28.386 L33.728,30.169 C33.728,30.169 33.397,30.837 33.228,30.57 C33.059,30.302 33.219,28.787 33.228,28.253 C33.238,27.718 32.837,26.961 32.658,26.649 C32.48,26.337 29.941,26.292 29.896,26.07 z" fill="#000000"/>
    <path d="M27.126,27.638 C27.303,27.192 30.021,26.925 30.021,26.925 C30.021,26.925 31.001,26.88 31.402,27.281 C31.803,27.682 32.249,29.021 32.249,29.021 C32.249,29.021 32.917,30.088 32.65,30.445 C32.382,30.801 31.491,32.138 31.269,31.826 C31.046,31.514 31.892,29.865 31.848,29.464 C31.803,29.063 30.021,28.516 30.021,28.516 C30.021,28.516 26.948,28.083 27.126,27.638 z" fill="#000000"/>
    <g>
      <path d="M28.293,21.588 C28.427,22.078 29.095,22.078 29.14,22.346 C29.184,22.613 28.605,23.727 28.605,23.727 L28.249,25.063 C28.249,25.063 28.026,26.044 28.472,26.133 C28.917,26.222 29.363,24.35 29.363,24.35 C29.363,24.35 29.675,22.167 29.63,22.034 C29.585,21.9 29.14,21.232 28.917,21.143 C28.694,21.053 28.16,21.098 28.293,21.588 z" fill="#000000"/>
      <path d="M28.293,21.588 C28.427,22.078 29.095,22.078 29.14,22.346 C29.184,22.613 28.605,23.727 28.605,23.727 L28.249,25.063 C28.249,25.063 28.026,26.044 28.472,26.133 C28.917,26.222 29.363,24.35 29.363,24.35 C29.363,24.35 29.675,22.167 29.63,22.034 C29.585,21.9 29.14,21.232 28.917,21.143 C28.694,21.053 28.16,21.098 28.293,21.588 z" fill-opacity="0" stroke="#000000" stroke-width="0.5"/>
    </g>
    <path d="M30.333,19.662 C30.288,19.35 32.115,19.217 32.65,19.395 C33.184,19.573 33.719,19.93 33.853,20.375 C33.986,20.821 33.853,21.534 33.853,21.534 C33.853,21.534 34.165,22.247 33.853,22.38 C33.541,22.514 33.14,20.776 32.917,20.643 C32.694,20.509 32.071,20.106 32.071,20.106 C32.071,20.106 30.377,19.974 30.333,19.662 z" fill="#000000"/>
    <path d="M36.714,19.41 C36.714,19.41 35.689,20.43 35.823,20.786 C35.957,21.143 35.422,22.034 35.422,22.034 C35.422,22.034 34.62,22.568 34.709,22.88 C34.798,23.192 33.595,24.071 33.595,24.071 C33.595,24.071 32.17,24.796 31.813,25.063 C31.457,25.331 30.61,25.331 30.254,25.643 C29.897,25.954 29.585,26.667 29.229,26.801 C28.873,26.935 28.205,26.534 27.626,26.801 C27.046,27.068 26.957,27.781 26.957,27.781 L26.511,29.301" fill-opacity="0" stroke="#000000" stroke-width="0.5"/>
    <path d="M35.333,20.606 L35.556,21.766" fill-opacity="0" stroke="#000000" stroke-width="0.25"/>
    <path d="M34.065,18.63 L35.02,18.095 C35.02,18.095 36.079,18.274 36.302,18.808 C36.525,19.343 36.006,20.189 36.006,20.189" fill-opacity="0" stroke="#000000" stroke-width="0.25"/>
    <g>
      <path d="M36.358,22.435 L35.333,22.027" fill="#000000"/>
      <path d="M36.358,22.435 L35.333,22.027" fill-opacity="0" stroke="#000000" stroke-width="0.25"/>
    </g>
    <g>
      <path d="M34.353,24.35 C34.353,24.35 33.907,24.306 33.64,24.707 C33.373,25.108 32.75,24.618 32.75,24.618" fill="#000000"/>
      <path d="M34.353,24.35 C34.353,24.35 33.907,24.306 33.64,24.707 C33.373,25.108 32.75,24.618 32.75,24.618" fill-opacity="0" stroke="#000000" stroke-width="0.25"/>
    </g>
    <g>
      <path d="M30.832,26.45 L29.634,26.45" fill="#000000"/>
      <path d="M30.832,26.45 L29.634,26.45" fill-opacity="0" stroke="#000000" stroke-width="0.25"/>
    </g>
    <g>
      <path d="M28.472,25.643 L28.382,26.756" fill="#000000"/>
      <path d="M28.472,25.643 L28.382,26.756" fill-opacity="0" stroke="#000000" stroke-width="0.25"/>
    </g>
    <path d="M28.193,28.227 C28.193,28.227 27.219,28.233 27.555,27.94 C27.892,27.648 27.358,27.068 27.358,27.068" fill-opacity="0" stroke="#000000" stroke-width="0.25"/>
    <path d="M26.511,29.301 C26.511,29.301 27.419,30.425 27.555,31.008 C27.692,31.591 26.979,33.462 26.957,34.42 C26.934,35.378 26.973,37.227 27.555,37.45 C28.137,37.672 29.14,39.365 29.14,39.365" fill-opacity="0" stroke="#000000" stroke-width="0.5"/>
    <path d="M27.055,31.265 C27.08,31.113 28.011,31.796 28.481,31.755 C28.952,31.714 30.216,30.103 30.753,30.508 C31.291,30.912 29.771,31.997 29.796,32.334 C29.821,32.672 28.322,32.643 28.102,32.669 C27.882,32.695 27.03,31.417 27.055,31.265 z" fill="#000000"/>
    <g>
      <path d="M27.372,33.704 C27.483,33.504 28.018,34.15 28.218,34.194 C28.419,34.239 29.118,33.704 29.381,33.704 C29.644,33.704 31.827,34.996 31.782,35.264 C31.738,35.531 29.376,34.618 29.131,34.64 C28.886,34.662 28.441,35.245 28.129,35.154 C27.817,35.063 27.261,33.905 27.372,33.704 z" fill="#000000"/>
      <path d="M27.372,33.704 C27.483,33.504 28.018,34.15 28.218,34.194 C28.419,34.239 29.118,33.704 29.381,33.704 C29.644,33.704 31.827,34.996 31.782,35.264 C31.738,35.531 29.376,34.618 29.131,34.64 C28.886,34.662 28.441,35.245 28.129,35.154 C27.817,35.063 27.261,33.905 27.372,33.704 z" fill-opacity="0" stroke="#000000" stroke-width="0.25"/>
    </g>
    <path d="M27.366,35.836 C27.344,35.591 28.324,35.967 28.591,35.957 C28.858,35.947 29.282,35.19 29.527,35.212 C29.772,35.234 29.993,35.301 29.971,35.68 C29.95,36.058 29.148,36.393 28.881,36.482 C28.613,36.571 27.388,36.081 27.366,35.836 z" fill="#000000"/>
    <path d="M28.654,37.673 C28.765,37.361 29.632,38.185 30.034,38.364 C30.436,38.542 31.015,38.163 31.126,37.985 C31.238,37.807 30.347,37.138 30.213,36.916 C30.079,36.693 30.191,36.492 30.592,36.492 C30.993,36.492 31.928,37.762 31.906,38.096 C31.884,38.43 30.746,38.876 30.346,38.965 C29.946,39.054 29.148,38.586 29.148,38.586 C29.148,38.586 28.542,37.985 28.654,37.673 z" fill="#000000"/>
    <path d="M28.772,38.528 C28.973,38.595 29.062,39.441 28.906,39.887 C28.75,40.332 28.61,40.956 28.104,41.201 C26.595,41.602 26.204,40.733 25.988,40.511 C25.771,40.288 25.542,39.218 25.743,38.996 C25.943,38.773 26.99,39.798 26.99,39.798 C26.99,39.798 27.235,39.887 27.547,39.575 C27.859,39.263 28.572,38.461 28.772,38.528 z" fill="#000000"/>
    <path d="M26.679,36.593 C26.568,36.459 25.855,37.105 25.61,37.373 C25.365,37.64 24.229,37.239 24.229,37.239 C24.229,37.239 23.316,36.771 23.271,37.217 C23.226,37.662 24.028,38.264 24.385,38.442 C24.741,38.62 25.41,38.487 25.744,38.242 C26.078,37.997 26.791,36.727 26.679,36.593 z" fill="#000000"/>
    <path d="M26.457,34.922 C26.568,35.078 25.365,36.081 25.12,36.303 C24.875,36.526 23.449,36.125 23.093,36.259 C22.736,36.393 20.241,35.479 20.308,35.212 C20.375,34.945 20.954,34.814 21.422,34.813 C21.89,34.811 22.291,35.078 22.647,35.212 C23.004,35.346 23.761,35.145 24.095,35.212 C24.429,35.279 24.407,35.524 24.719,35.657 C25.031,35.791 26.345,34.766 26.457,34.922 z" fill="#000000"/>
    <path d="M26.568,32.739 C26.635,33.006 25.521,32.962 25.454,33.207 C25.387,33.452 25.231,34.168 25.076,34.456 C24.92,34.744 23.271,33.942 23.271,33.942 C23.271,33.942 22.113,33.318 21.979,33.051 C21.845,32.784 22.046,31.852 22.246,31.873 C22.447,31.893 22.803,32.873 23.36,33.162 C23.917,33.452 24.184,33.497 24.541,33.363 C24.897,33.229 25.165,32.472 25.521,32.472 C25.877,32.472 26.501,32.472 26.568,32.739 z" fill="#000000"/>
    <path d="M25.613,30.756 C25.68,31.113 24.053,31.202 23.92,31.492 C23.786,31.781 22.45,31.536 22.45,31.536 C22.45,31.536 21.648,31.603 21.581,31.38 C21.514,31.157 21.67,30.088 21.67,30.088 C21.67,30.088 21.714,29.308 22.093,29.331 C22.472,29.353 22.271,30.734 22.561,30.868 C22.851,31.001 23.898,30.508 23.898,30.508 C23.898,30.508 24.61,30.11 24.855,30.177 C25.101,30.244 25.502,30.623 25.502,30.623 C25.502,30.623 25.546,30.4 25.613,30.756 z" fill="#000000"/>
    <path d="M29.262,38.346 C29.262,38.346 29.04,38.012 28.861,37.811 C28.683,37.611 28.193,37.99 28.193,37.99" fill-opacity="0" stroke="#000000" stroke-width="0.25" stroke-linecap="round"/>
    <g>
      <path d="M28.071,36.457 L26.964,35.711" fill="#000000"/>
      <path d="M28.071,36.457 L26.964,35.711" fill-opacity="0" stroke="#000000" stroke-width="0.25"/>
    </g>
    <path d="M26.001,31.1 C26.001,31.1 25.713,30.454 26.001,30.41 C26.288,30.365 26.199,30.566 26.511,30.677 C26.823,30.789 27.358,30.544 27.358,30.544" fill-opacity="0" stroke="#000000" stroke-width="0.25" stroke-linecap="round"/>
    <g>
      <path d="M27.555,33.863 L27.288,32.638" fill="#000000"/>
      <path d="M27.555,33.863 L27.288,32.638" fill-opacity="0" stroke="#000000" stroke-width="0.25"/>
    </g>
    <g>
      <path d="M56.033,35.019 L189.033,35.019" fill="#000000"/>
      <path d="M56.033,35.019 L189.033,35.019" fill-opacity="0" stroke="#000000" stroke-width="1"/>
    </g>
    <text transform="matrix(1, 0, 0, 1, 127.333, 43.186)">
      <tspan x="-71.8" y="2.186" font-family="LucidaGrande-Bold" font-size="9" kerning="2.6" fill="#000000">UC</tspan>
      <tspan x="-53.561" y="2.186" font-family="ArialHebrewScholar-Bold" font-size="9" kerning="2.6" fill="#000000"> </tspan>
      <tspan x="-48.459" y="2.186" font-family="LucidaGrande-Bold" font-size="9" kerning="2.6" fill="#000000">SANTA</tspan>
      <tspan x="-3.937" y="2.186" font-family="ArialHebrewScholar-Bold" font-size="9" kerning="2.6" fill="#000000"> </tspan>
      <tspan x="1.165" y="2.186" font-family="LucidaGrande-Bold" font-size="9" kerning="2.6" fill="#000000">BARBARA</tspan>
    </text>
  </g>
</svg>
