<?xml version="1.0" encoding="UTF-8"?>
<!DOCTYPE svg PUBLIC "-//W3C//DTD SVG 1.1//EN" "http://www.w3.org/Graphics/SVG/1.1/DTD/svg11.dtd">
<svg version="1.1" xmlns="http://www.w3.org/2000/svg" xmlns:xlink="http://www.w3.org/1999/xlink" x="0" y="0" width="525" height="50" viewBox="0, 0, 525, 50">
  <g id="Layer_1">
    <text transform="matrix(1, 0, 0, 1, 305.733, 55)">
      <tspan x="-245.767" y="-28" font-family="Charter-Roman" font-size="28" kerning="0" fill="#000000">SUSTAINABLE FISHERIES GROUP</tspan>
    </text>
    <path d="M5.195,3.964 C5.195,3.964 5.594,2.962 14.561,2.761 C23.529,2.561 28.909,3.563 28.909,3.563 C28.909,3.563 34.29,4.164 40.667,4.365 C47.044,4.565 51.428,3.964 51.428,3.964 C51.428,3.964 52.225,7.171 52.225,14.187 C52.225,21.203 51.627,26.215 51.627,26.215 C51.627,26.215 51.029,30.825 51.029,37.641 C51.029,44.457 51.428,47.263 51.428,47.263 C51.428,47.263 44.254,48.265 40.866,48.265 C37.478,48.265 28.511,47.464 28.511,47.464 C28.511,47.464 22.134,46.662 16.155,46.662 C10.177,46.662 4.996,47.464 4.996,47.464 C4.996,47.464 4.597,40.648 4.597,34.835 C4.597,29.021 4.996,26.014 5.394,23.008 C5.793,20.001 5.594,16.793 5.594,12.183 C5.594,7.572 5.195,3.964 5.195,3.964 z" fill-opacity="0" stroke="#000000" stroke-width="1"/>
    <g>
      <path d="M8.29,23.874 C8.29,23.874 8.193,23.38 8.436,23.231 C8.679,23.083 10.381,24.219 11.695,25.504 C13.008,26.788 13.543,27.381 14.71,29.555 C15.878,31.729 15.683,35.681 16.121,37.114 C16.559,38.547 16.656,38.942 17.921,39.979 C19.185,41.017 19.574,41.165 20.839,41.511 C22.104,41.857 24.341,41.807 24.341,41.807 C24.341,41.807 23.709,42.944 23.076,43.092 C22.444,43.24 21.131,42.894 21.131,42.894 L19.769,42.449 C19.769,42.449 19.866,43.289 19.769,43.932 C19.672,44.574 18.942,44.87 18.942,44.87 C18.942,44.87 18.845,43.586 18.504,42.845 C18.164,42.104 16.607,40.967 16.607,40.967 C16.607,40.967 12.57,38.448 11.695,37.608 C10.819,36.768 9.311,35.138 8.436,32.865 C7.56,30.593 7.317,29.407 7.22,27.678 C7.123,25.949 7.269,24.022 7.512,23.824 C7.755,23.627 8.29,23.874 8.29,23.874 z" fill="#000000"/>
      <path d="M6.928,31.531 C6.928,31.531 6.685,33.705 6.928,34.545 C7.171,35.385 8.095,35.928 8.436,36.669 C8.776,37.41 8.971,38.102 8.922,38.843 C8.874,39.584 8.582,41.066 8.582,41.066 C8.582,41.066 9.701,39.683 9.846,39.139 C9.992,38.596 9.895,37.361 9.652,36.719 C9.409,36.076 8.144,34.742 7.852,34.248 C7.56,33.754 6.928,31.531 6.928,31.531 z" fill="#000000"/>
      <path d="M15.002,28.221 C15.002,28.221 17.142,30.296 17.531,31.087 C17.921,31.877 18.018,33.804 18.018,33.804 C18.018,33.804 18.018,36.126 17.823,36.373 C17.629,36.62 16.802,36.669 16.607,36.373 C16.413,36.076 16.705,33.162 16.607,32.173 C16.51,31.185 15.002,28.221 15.002,28.221 z" fill="#000000"/>
    </g>
    <g>
      <path d="M34.737,42.744 C34.737,42.744 34.378,43.092 34.125,42.963 C33.871,42.833 33.907,40.764 34.273,38.95 C34.64,37.136 34.847,36.36 36.032,34.196 C37.216,32.032 40.608,30.086 41.566,28.944 C42.524,27.802 42.801,27.507 42.988,25.867 C43.175,24.227 43.091,23.814 42.702,22.543 C42.314,21.273 41.077,19.379 41.077,19.379 C41.077,19.379 42.36,19.314 42.821,19.778 C43.283,20.241 43.697,21.553 43.697,21.553 L44.055,22.96 C44.055,22.96 44.702,22.428 45.288,22.168 C45.875,21.908 46.511,22.376 46.511,22.376 C46.511,22.376 45.495,23.146 45.06,23.834 C44.626,24.523 44.512,26.466 44.512,26.466 C44.512,26.466 44.574,31.279 44.344,32.479 C44.113,33.68 43.563,35.846 42.14,37.812 C40.717,39.779 39.861,40.621 38.474,41.629 C37.088,42.637 35.407,43.542 35.112,43.439 C34.818,43.336 34.737,42.744 34.737,42.744 z" fill="#000000"/>
      <path d="M41.836,39.819 C41.836,39.819 43.775,38.866 44.344,38.208 C44.913,37.55 44.871,36.467 45.305,35.778 C45.74,35.09 46.211,34.553 46.854,34.199 C47.496,33.844 48.885,33.302 48.885,33.302 C48.885,33.302 47.136,33.082 46.606,33.247 C46.076,33.412 45.1,34.156 44.696,34.708 C44.292,35.26 43.858,37.059 43.603,37.573 C43.348,38.088 41.836,39.819 41.836,39.819 z" fill="#000000"/>
      <path d="M34.766,34.659 C34.766,34.659 35.348,31.712 35.798,30.956 C36.247,30.199 37.798,29.085 37.798,29.085 C37.798,29.085 39.73,27.844 40.04,27.879 C40.349,27.914 40.832,28.597 40.69,28.923 C40.547,29.248 37.966,30.556 37.196,31.168 C36.426,31.78 34.766,34.659 34.766,34.659 z" fill="#000000"/>
    </g>
    <g>
      <path d="M37.451,12.188 C37.451,12.188 37.92,12.352 37.924,12.64 C37.928,12.928 36.105,13.851 34.351,14.357 C32.597,14.864 31.824,15.036 29.387,14.967 C26.95,14.898 23.685,12.74 22.246,12.403 C20.806,12.067 20.421,11.953 18.902,12.542 C17.383,13.13 17.061,13.397 16.131,14.333 C15.201,15.27 14.117,17.259 14.117,17.259 C14.117,17.259 13.468,16.132 13.66,15.502 C13.852,14.873 14.807,13.894 14.807,13.894 L15.871,12.922 C15.871,12.922 15.107,12.585 14.609,12.176 C14.112,11.768 14.227,10.978 14.227,10.978 C14.227,10.978 15.369,11.539 16.17,11.613 C16.972,11.687 18.722,10.892 18.722,10.892 C18.722,10.892 22.897,8.615 24.052,8.269 C25.207,7.923 27.352,7.419 29.727,7.794 C32.101,8.168 33.232,8.551 34.752,9.336 C36.272,10.12 37.839,11.217 37.884,11.53 C37.93,11.843 37.451,12.188 37.451,12.188 z" fill="#000000"/>
      <path d="M31.62,7.141 C31.62,7.141 29.893,5.834 29.056,5.625 C28.219,5.416 27.291,5.954 26.49,5.88 C25.688,5.807 25.001,5.629 24.395,5.214 C23.789,4.799 22.675,3.797 22.675,3.797 C22.675,3.797 23.289,5.475 23.678,5.876 C24.067,6.278 25.167,6.813 25.836,6.923 C26.505,7.033 28.276,6.593 28.843,6.586 C29.41,6.578 31.62,7.141 31.62,7.141 z" fill="#000000"/>
      <path d="M30.375,15.894 C30.375,15.894 27.533,16.729 26.665,16.673 C25.796,16.617 24.108,15.733 24.108,15.733 C24.108,15.733 22.132,14.565 22.02,14.27 C21.908,13.975 22.281,13.225 22.632,13.203 C22.982,13.181 25.315,14.904 26.205,15.315 C27.095,15.727 30.375,15.894 30.375,15.894 z" fill="#000000"/>
    </g>
    <g>
      <path d="M10.653,13.3 C10.458,13.204 9.242,14.458 9.242,14.941 C9.242,15.423 10.75,17.884 11.285,17.594 C11.82,17.305 10.507,15.616 10.458,15.134 C10.41,14.651 10.847,13.397 10.653,13.3 z" fill="#000000"/>
      <path d="M11.268,13.152 C11.043,13.544 10.897,14.123 11.043,14.605 C11.189,15.088 11.724,16.487 12.016,16.487 C12.307,16.487 12.016,15.233 12.307,14.75 C12.599,14.268 13.006,14.412 13.168,14.171 C13.329,13.93 13.395,13.34 13.168,13.152 C12.94,12.965 11.493,12.761 11.268,13.152 z" fill="#000000"/>
      <path d="M13.64,19.801 C13.689,19.657 10.625,19.657 10.381,19.946 C10.138,20.236 9.36,21.49 9.555,21.78 C9.749,22.069 10.653,21.297 11.052,21.008 C11.452,20.718 13.592,19.946 13.64,19.801 z" fill="#000000"/>
      <path d="M16.897,20.669 C16.8,20.525 15.487,20.428 14.951,20.621 C14.416,20.814 13.755,21.248 13.673,21.779 C13.59,22.31 13.415,23.371 13.673,23.757 C13.93,24.144 13.93,24.095 14.271,24.095 C14.611,24.095 14.319,22.937 14.611,22.262 C14.903,21.586 16.994,20.814 16.897,20.669 z" fill="#000000"/>
      <path d="M16.522,17.968 C16.328,17.92 16.376,16.52 16.522,16.086 C16.668,15.652 17.154,15.169 17.592,15.025 C18.03,14.88 19.878,14.446 19.878,14.783 C19.878,15.121 19.246,15.555 18.857,15.845 C18.468,16.134 17.835,15.845 17.641,16.134 C17.446,16.424 16.717,18.016 16.522,17.968 z" fill="#000000"/>
      <path d="M13.625,23.126 C13.64,22.885 12.473,22.595 12.084,22.45 C11.695,22.306 9.944,22.257 9.944,22.643 C9.944,23.029 11.026,23.39 11.725,23.499 C12.424,23.608 13.609,23.367 13.625,23.126 z" fill="#000000"/>
      <path d="M12.94,24.744 C13.038,25.033 14.156,25.66 14.643,25.612 C15.129,25.564 14.789,24.888 15.226,24.792 C15.664,24.695 16.832,24.985 17.464,24.792 C18.096,24.599 18.145,23.055 18.437,22.958 C18.729,22.862 20.188,23.682 20.236,23.441 C20.285,23.2 18.631,22.138 18.631,22.138 C18.631,22.138 17.756,21.848 17.513,22.138 C17.269,22.427 17.318,23.779 16.88,23.923 C16.442,24.068 15.324,23.73 15.081,23.923 C14.837,24.116 14.691,24.309 14.448,24.502 C14.205,24.695 12.843,24.454 12.94,24.744 z" fill="#000000"/>
      <path d="M18.699,20.043 C18.553,20.091 18.504,18.895 18.553,18.552 C18.602,18.209 19.428,17.775 20.207,17.727 C21.423,17.509 21.52,16.858 21.909,17.003 C22.298,17.148 23.076,17.341 23.028,17.727 C22.979,18.113 21.714,18.552 21.714,18.552 C21.714,18.552 21.471,18.788 21.228,18.981 C20.985,19.174 19.769,18.547 19.477,18.933 C19.185,19.319 18.845,19.994 18.699,20.043 z" fill="#000000"/>
      <path d="M21.463,23.346 C21.463,22.912 20.977,21.609 21.171,21.03 C21.366,20.451 21.95,20.206 22.582,20.015 C23.214,19.824 24.333,20.015 24.333,20.015 C24.333,20.015 27.203,20.403 27.154,20.74 C27.105,21.078 24.333,21.03 24.333,21.03 C24.333,21.03 23.166,20.885 22.922,21.03 C22.679,21.175 22.241,22.043 22.241,22.477 C22.241,22.912 22.436,23.272 22.339,23.767 C22.241,24.263 21.706,24.649 21.512,24.745 C21.317,24.842 21.463,23.78 21.463,23.346 z" fill="#000000"/>
      <path d="M21.495,26.628 C21.446,26.435 20.279,26.483 20.279,26.483 C20.279,26.483 19.5,25.856 18.868,25.856 C18.236,25.856 17.895,26.483 17.555,26.772 C17.214,27.062 16.533,26.965 16.582,27.593 C16.631,28.22 16.923,28.702 16.923,28.702 C16.923,28.702 17.214,29.378 17.652,29.33 C18.09,29.281 18.43,28.461 18.43,28.461 C18.43,28.461 18.382,27.786 18.625,27.496 C18.868,27.207 19.598,27.207 19.598,27.207 L20.814,27.4 C20.814,27.4 21.543,26.821 21.495,26.628 z" fill="#000000"/>
      <path d="M23.967,27.602 C23.724,27.554 23.626,25.769 23.724,25.335 C23.821,24.9 24.064,25.335 24.259,24.9 C24.453,24.466 24.113,24.006 24.259,23.633 C24.405,23.26 24.794,22.729 25.329,22.584 C25.864,22.44 26.983,22.247 27.08,22.584 C27.177,22.922 26.107,23.984 26.107,23.984 L25.329,25.672 C25.329,25.672 24.21,27.651 23.967,27.602 z" fill="#000000"/>
      <path d="M11.708,17.744 C11.708,17.744 12.146,17.648 12.778,18.227 C13.411,18.806 13.216,19.095 13.411,19.481 C13.605,19.867 14.189,20.205 14.675,20.301 C15.162,20.398 15.794,20.105 16.28,20.106 C16.767,20.108 17.107,20.301 17.107,20.301 C17.107,20.301 17.886,20.832 18.323,21.122 C18.761,21.411 19.928,21.894 19.928,21.894 C19.928,21.894 20.512,21.846 20.755,22.618 C20.998,23.39 20.609,24.017 20.755,24.596 C20.901,25.175 21.679,25.513 21.679,25.513 C21.679,25.513 22.458,25.561 22.652,25.947 C22.847,26.333 22.458,27.105 22.604,27.539 C22.749,27.973 23.09,28.408 23.528,28.552 C23.965,28.697 24.841,28.649 25.279,28.794 C25.716,28.938 26.446,29.517 26.446,29.517" fill-opacity="0" stroke="#000000" stroke-width="0.5"/>
      <path d="M17.107,18.227 C17.107,18.227 17.156,18.757 17.351,19.143 C17.545,19.529 17.107,20.301 17.107,20.301" fill-opacity="0" stroke="#000000" stroke-width="0.25"/>
      <path d="M19.296,20.301 C19.296,20.301 19.393,20.809 19.734,21.014 C20.074,21.218 19.928,21.894 19.928,21.894" fill-opacity="0" stroke="#000000" stroke-width="0.25"/>
      <path d="M17.107,21.162 C17.107,21.162 17.448,20.994 17.691,21.006 C17.934,21.018 18.323,21.114 18.323,21.114" fill-opacity="0" stroke="#000000" stroke-width="0.25"/>
      <path d="M21.679,27.057 C21.679,27.057 21.728,27.153 22.117,27.298 C22.506,27.443 22.604,27.298 22.604,27.298" fill-opacity="0" stroke="#000000" stroke-width="0.25"/>
      <path d="M21.997,24.747 L22.24,25.134 L22.629,25.857" fill-opacity="0" stroke="#000000" stroke-width="0.25"/>
      <path d="M24.549,27.829 L24.841,28.215 L25.279,28.794" fill-opacity="0" stroke="#000000" stroke-width="0.25"/>
      <path d="M12.389,16.49 C12.389,16.49 12.341,16.834 12.681,17.241 C13.022,17.648 12.778,18.227 12.778,18.227" fill-opacity="0" stroke="#000000" stroke-width="0.25"/>
      <path d="M13.616,23.718 C13.616,23.718 15.626,22.205 16.404,22.576 C17.183,22.946 18.544,21.402 18.544,21.402" fill-opacity="0" stroke="#000000" stroke-width="0.25"/>
    </g>
    <path d="M27.123,22.68 C27.414,22.582 28.922,22.334 28.922,22.334 C28.922,22.334 29.02,22.137 29.457,22.631 C29.895,23.125 30.479,24.558 30.284,24.755 C30.09,24.953 29.214,23.224 28.776,23.174 C28.339,23.125 26.832,22.779 27.123,22.68 z" fill="#000000"/>
    <path d="M31.588,17.303 C31.345,17.056 30.567,18.538 30.567,19.131 C30.567,19.724 30.664,19.724 30.713,20.415 C30.761,21.107 30.08,21.008 30.324,21.65 C30.567,22.293 31.345,22.787 31.54,22.984 C31.734,23.182 30.567,24.121 30.859,24.318 C31.151,24.516 32.707,22.935 32.756,22.54 C32.804,22.144 31.686,22.046 31.588,21.354 C31.491,20.662 31.831,17.55 31.588,17.303 z" fill="#000000"/>
    <path d="M33.245,18.684 C32.905,18.531 33.683,16.654 34.121,16.802 C34.558,16.95 34.295,17.543 34.451,17.938 C34.607,18.333 33.586,18.838 33.245,18.684 z" fill="#000000"/>
    <path d="M34.952,16.068 C34.66,16.364 34.514,18.054 34.855,18.247 C35.195,18.439 35.195,19.423 35.536,19.573 C35.876,19.724 35.584,17.5 35.925,17.5 C36.265,17.5 36.314,16.759 36.071,16.364 C35.828,15.969 35.244,15.771 34.952,16.068 z" fill="#000000"/>
    <path d="M36.354,18.441 C36.354,18.441 36.938,17.299 37.522,16.805 C38.105,16.311 39.127,16.163 39.856,16.262 C40.586,16.361 40.926,17.694 40.926,17.694 C40.926,17.694 41.315,18.149 40.975,18.441 C40.635,18.732 39.905,17.843 39.516,17.694 C39.127,17.546 36.354,18.441 36.354,18.441 z" fill="#000000"/>
    <path d="M36.112,21.255 C36.452,21.107 38.203,20.909 38.738,20.959 C39.273,21.008 39.711,21.403 40.003,22.144 C40.295,22.886 39.76,24.565 40.003,24.812 C40.246,25.059 40.587,25.751 40.052,25.85 C39.516,25.949 38.641,24.763 38.544,24.318 C38.446,23.874 38.544,23.33 38.446,22.787 C38.349,22.243 35.771,21.403 36.112,21.255 z" fill="#000000"/>
    <path d="M34.37,23.389 C34.662,23.043 36.413,23.34 36.948,23.587 C37.483,23.834 37.434,24.328 37.483,24.921 C37.532,25.514 36.753,25.761 36.948,26.205 C37.143,26.65 37.483,26.749 37.191,27.193 C36.899,27.638 36.218,27.144 35.975,26.798 C35.732,26.452 35.683,26.106 35.683,25.711 C35.683,25.316 35.781,24.822 35.635,24.525 C35.489,24.229 34.078,23.735 34.37,23.389 z" fill="#000000"/>
    <path d="M30.187,25.988 C30.139,25.741 31.938,25.099 32.619,25.099 C33.3,25.099 34.516,25.84 34.759,26.334 C35.002,26.828 34.759,28.557 34.759,28.557 L34.37,30.534 C34.37,30.534 34.009,31.275 33.825,30.978 C33.641,30.682 33.815,29.002 33.825,28.409 C33.835,27.816 33.397,26.976 33.203,26.631 C33.008,26.285 30.236,26.235 30.187,25.988 z" fill="#000000"/>
    <path d="M27.163,27.727 C27.357,27.233 30.324,26.937 30.324,26.937 C30.324,26.937 31.394,26.887 31.831,27.332 C32.269,27.777 32.756,29.261 32.756,29.261 C32.756,29.261 33.485,30.444 33.193,30.84 C32.902,31.235 31.929,32.717 31.686,32.371 C31.442,32.025 32.366,30.197 32.318,29.753 C32.269,29.308 30.324,28.701 30.324,28.701 C30.324,28.701 26.969,28.221 27.163,27.727 z" fill="#000000"/>
    <g>
      <path d="M28.392,20.965 C28.538,21.508 29.267,21.508 29.316,21.805 C29.364,22.101 28.732,23.336 28.732,23.336 L28.343,24.818 C28.343,24.818 28.1,25.905 28.586,26.004 C29.073,26.103 29.559,24.028 29.559,24.028 C29.559,24.028 29.899,21.607 29.851,21.459 C29.802,21.311 29.316,20.569 29.073,20.471 C28.829,20.372 28.246,20.421 28.392,20.965 z" fill="#000000"/>
      <path d="M28.392,20.965 C28.538,21.508 29.267,21.508 29.316,21.805 C29.364,22.101 28.732,23.336 28.732,23.336 L28.343,24.818 C28.343,24.818 28.1,25.905 28.586,26.004 C29.073,26.103 29.559,24.028 29.559,24.028 C29.559,24.028 29.899,21.607 29.851,21.459 C29.802,21.311 29.316,20.569 29.073,20.471 C28.829,20.372 28.246,20.421 28.392,20.965 z" fill-opacity="0" stroke="#000000" stroke-width="0.5"/>
    </g>
    <path d="M30.664,18.884 C30.615,18.538 32.61,18.39 33.193,18.587 C33.777,18.785 34.361,19.18 34.507,19.674 C34.653,20.168 34.507,20.959 34.507,20.959 C34.507,20.959 34.847,21.749 34.507,21.897 C34.166,22.046 33.728,20.119 33.485,19.971 C33.242,19.822 32.561,19.376 32.561,19.376 C32.561,19.376 30.713,19.23 30.664,18.884 z" fill="#000000"/>
    <path d="M37.585,18.549 C37.585,18.549 36.466,19.68 36.612,20.075 C36.758,20.471 36.174,21.459 36.174,21.459 C36.174,21.459 35.298,22.052 35.396,22.397 C35.493,22.743 34.18,23.718 34.18,23.718 C34.18,23.718 32.623,24.522 32.234,24.818 C31.845,25.115 30.921,25.115 30.532,25.46 C30.143,25.806 29.802,26.597 29.413,26.745 C29.024,26.893 28.296,26.449 27.663,26.745 C27.03,27.041 26.932,27.832 26.932,27.832 L26.446,29.517" fill-opacity="0" stroke="#000000" stroke-width="0.5"/>
    <path d="M36.077,19.876 L36.32,21.162" fill-opacity="0" stroke="#000000" stroke-width="0.25"/>
    <path d="M34.693,17.685 L35.735,17.092 C35.735,17.092 36.892,17.289 37.135,17.882 C37.378,18.475 36.812,19.414 36.812,19.414" fill-opacity="0" stroke="#000000" stroke-width="0.25"/>
    <g>
      <path d="M37.195,21.903 L36.077,21.451" fill="#000000"/>
      <path d="M37.195,21.903 L36.077,21.451" fill-opacity="0" stroke="#000000" stroke-width="0.25"/>
    </g>
    <g>
      <path d="M35.007,24.028 C35.007,24.028 34.52,23.978 34.228,24.423 C33.937,24.868 33.257,24.324 33.257,24.324" fill="#000000"/>
      <path d="M35.007,24.028 C35.007,24.028 34.52,23.978 34.228,24.423 C33.937,24.868 33.257,24.324 33.257,24.324" fill-opacity="0" stroke="#000000" stroke-width="0.25"/>
    </g>
    <g>
      <path d="M31.163,26.356 L29.856,26.356" fill="#000000"/>
      <path d="M31.163,26.356 L29.856,26.356" fill-opacity="0" stroke="#000000" stroke-width="0.25"/>
    </g>
    <g>
      <path d="M28.586,25.46 L28.489,26.696" fill="#000000"/>
      <path d="M28.586,25.46 L28.489,26.696" fill-opacity="0" stroke="#000000" stroke-width="0.25"/>
    </g>
    <path d="M28.282,28.326 C28.282,28.326 27.218,28.333 27.586,28.008 C27.954,27.684 27.37,27.041 27.37,27.041" fill-opacity="0" stroke="#000000" stroke-width="0.25"/>
    <path d="M26.446,29.517 C26.446,29.517 27.437,30.763 27.586,31.41 C27.735,32.056 26.957,34.131 26.932,35.193 C26.908,36.255 26.951,38.306 27.586,38.553 C28.221,38.8 29.316,40.677 29.316,40.677" fill-opacity="0" stroke="#000000" stroke-width="0.5"/>
    <path d="M27.086,31.749 C27.113,31.581 28.129,32.338 28.643,32.293 C29.156,32.248 30.537,30.461 31.123,30.91 C31.71,31.358 30.05,32.56 30.077,32.935 C30.105,33.31 28.469,33.277 28.229,33.306 C27.989,33.334 27.059,31.918 27.086,31.749 z" fill="#000000"/>
    <g>
      <path d="M27.386,34.4 C27.507,34.177 28.091,34.894 28.309,34.943 C28.528,34.992 29.292,34.4 29.579,34.4 C29.866,34.4 32.249,35.832 32.201,36.129 C32.152,36.425 29.574,35.412 29.307,35.437 C29.039,35.462 28.553,36.108 28.212,36.007 C27.872,35.906 27.265,34.622 27.386,34.4 z" fill="#000000"/>
      <path d="M27.386,34.4 C27.507,34.177 28.091,34.894 28.309,34.943 C28.528,34.992 29.292,34.4 29.579,34.4 C29.866,34.4 32.249,35.832 32.201,36.129 C32.152,36.425 29.574,35.412 29.307,35.437 C29.039,35.462 28.553,36.108 28.212,36.007 C27.872,35.906 27.265,34.622 27.386,34.4 z" fill-opacity="0" stroke="#000000" stroke-width="0.25"/>
    </g>
    <path d="M27.425,36.817 C27.401,36.546 28.471,36.963 28.763,36.952 C29.054,36.941 29.516,36.101 29.784,36.126 C30.052,36.15 30.293,36.225 30.269,36.645 C30.246,37.064 29.371,37.435 29.079,37.534 C28.787,37.633 27.449,37.089 27.425,36.817 z" fill="#000000"/>
    <path d="M28.831,38.855 C28.952,38.509 29.899,39.423 30.338,39.621 C30.776,39.818 31.409,39.398 31.53,39.201 C31.652,39.003 30.679,38.262 30.533,38.015 C30.387,37.768 30.509,37.546 30.947,37.546 C31.384,37.546 32.406,38.954 32.381,39.324 C32.357,39.695 31.115,40.189 30.678,40.288 C30.241,40.386 29.371,39.868 29.371,39.868 C29.371,39.868 28.709,39.201 28.831,38.855 z" fill="#000000"/>
    <path d="M28.961,39.803 C29.179,39.877 29.277,40.815 29.106,41.31 C28.936,41.804 28.784,42.495 28.231,42.767 C26.584,43.212 26.157,42.248 25.921,42.001 C25.684,41.754 25.434,40.568 25.653,40.321 C25.872,40.074 27.015,41.211 27.015,41.211 C27.015,41.211 27.282,41.31 27.623,40.964 C27.963,40.618 28.742,39.729 28.961,39.803 z" fill="#000000"/>
    <path d="M26.676,37.657 C26.554,37.509 25.776,38.225 25.508,38.522 C25.241,38.818 24.001,38.374 24.001,38.374 C24.001,38.374 23.003,37.855 22.955,38.349 C22.906,38.843 23.782,39.51 24.171,39.708 C24.56,39.905 25.289,39.757 25.654,39.485 C26.019,39.214 26.797,37.806 26.676,37.657 z" fill="#000000"/>
    <path d="M26.432,35.805 C26.554,35.978 25.241,37.089 24.973,37.336 C24.706,37.583 23.149,37.139 22.76,37.287 C22.371,37.435 19.647,36.422 19.72,36.126 C19.793,35.829 20.426,35.685 20.936,35.683 C21.447,35.681 21.885,35.978 22.274,36.126 C22.663,36.274 23.49,36.052 23.855,36.126 C24.219,36.2 24.195,36.472 24.536,36.62 C24.876,36.768 26.311,35.632 26.432,35.805 z" fill="#000000"/>
    <path d="M26.554,33.384 C26.627,33.68 25.411,33.631 25.338,33.903 C25.265,34.174 25.095,34.969 24.925,35.288 C24.754,35.607 22.955,34.718 22.955,34.718 C22.955,34.718 21.69,34.026 21.544,33.73 C21.398,33.433 21.617,32.401 21.836,32.423 C22.055,32.445 22.444,33.532 23.052,33.853 C23.66,34.174 23.952,34.224 24.341,34.076 C24.73,33.927 25.022,33.087 25.411,33.087 C25.8,33.087 26.481,33.087 26.554,33.384 z" fill="#000000"/>
    <path d="M25.511,31.185 C25.584,31.581 23.809,31.679 23.663,32.001 C23.517,32.322 22.058,32.05 22.058,32.05 C22.058,32.05 21.182,32.124 21.109,31.877 C21.036,31.63 21.207,30.444 21.207,30.444 C21.207,30.444 21.255,29.58 21.669,29.604 C22.082,29.629 21.863,31.161 22.18,31.309 C22.496,31.457 23.639,30.91 23.639,30.91 C23.639,30.91 24.417,30.469 24.684,30.543 C24.952,30.617 25.39,31.037 25.39,31.037 C25.39,31.037 25.438,30.79 25.511,31.185 z" fill="#000000"/>
    <path d="M29.45,39.547 C29.45,39.547 29.206,39.176 29.012,38.954 C28.817,38.732 28.282,39.151 28.282,39.151" fill-opacity="0" stroke="#000000" stroke-width="0.25" stroke-linecap="round"/>
    <g>
      <path d="M28.148,37.452 L26.94,36.625" fill="#000000"/>
      <path d="M28.148,37.452 L26.94,36.625" fill-opacity="0" stroke="#000000" stroke-width="0.25"/>
    </g>
    <path d="M25.889,31.512 C25.889,31.512 25.575,30.796 25.889,30.747 C26.203,30.697 26.106,30.92 26.446,31.043 C26.787,31.167 27.37,30.895 27.37,30.895" fill-opacity="0" stroke="#000000" stroke-width="0.25" stroke-linecap="round"/>
    <g>
      <path d="M27.586,34.576 L27.294,33.217" fill="#000000"/>
      <path d="M27.586,34.576 L27.294,33.217" fill-opacity="0" stroke="#000000" stroke-width="0.25"/>
    </g>
    <text transform="matrix(1, 0, 0, 1, 200.1, 50.048)">
      <tspan x="-140.133" y="-8" font-family="LucidaGrande-Bold" font-size="10" kerning="0" fill="#000000">UNIVERSITY</tspan>
      <tspan x="-79.084" y="-8" font-family="ArialHebrewScholar-Bold" font-size="10" kerning="0" fill="#000000"> </tspan>
      <tspan x="-76.304" y="-8" font-family="LucidaGrande-Bold" font-size="10" kerning="0" fill="#000000">OF</tspan>
      <tspan x="-62.329" y="-8" font-family="ArialHebrewScholar-Bold" font-size="10" kerning="0" fill="#000000"> </tspan>
      <tspan x="-59.549" y="-8" font-family="LucidaGrande-Bold" font-size="10" kerning="0" fill="#000000">CALIFORNIA</tspan>
      <tspan x="3.308" y="-8" font-family="ArialHebrewScholar-Bold" font-size="10" kerning="0" fill="#000000"> </tspan>
      <tspan x="6.088" y="-8" font-family="LucidaGrande-Bold" font-size="10" kerning="0" fill="#000000">SANTA</tspan>
      <tspan x="41.112" y="-8" font-family="ArialHebrewScholar-Bold" font-size="10" kerning="0" fill="#000000"> </tspan>
      <tspan x="43.892" y="-8" font-family="LucidaGrande-Bold" font-size="10" kerning="0" fill="#000000">BARBARA</tspan>
    </text>
  </g>
</svg>
